<svg xmlns="http://www.w3.org/2000/svg" viewBox="0 0 233.03 173.07"><defs><style>.cls-1{font-size:60px;fill:#d8856f;font-family:PineconeMVB-Regular, Pinecone MVB;}.cls-2{fill:#c14f5d;}.cls-3{fill:#90c962;}.cls-4{letter-spacing:-0.01em;}.cls-5{fill:#f1865e;}.cls-6{fill:#917d76;}</style></defs><g id="Layer_2" data-name="Layer 2"><g id="Layer_2-2" data-name="Layer 2"><text class="cls-1" transform="translate(23.81 80.85)"><tspan xml:space="preserve">H   </tspan></text><path class="cls-2" d="M105.06,41.92c-2.48,0-8,2.12-9.81,2.23s-6-2.23-8.75-2.23S73.44,44.54,73.28,57.37s9.83,23.69,13.44,23.46,5.72-2.35,8-2.13,5.56,2.09,8.89,2.13,12.39-8,13.34-23S105.72,41.87,105.06,41.92Z"/><path class="cls-3" d="M94.75,43.05a13.89,13.89,0,0,1,11.09-11.88A11,11,0,0,1,94.75,43.05Z"/><text class="cls-1" transform="translate(22.35 131.78)"><tspan class="cls-4">R</tspan><tspan x="45.24" y="0">OOM</tspan></text><text class="cls-1" transform="translate(117.92 80.85)">ME</text><line class="cls-5" x1="3.67" y1="31.32" x2="115.27" y2="3.74"/><path class="cls-6" d="M4.67,34.93l97.8-24.17,13.79-3.4C121,6.2,119-1,114.27.13L16.46,24.29,2.67,27.7c-4.68,1.16-2.7,8.39,2,7.23Z"/><line class="cls-5" x1="229.35" y1="31.32" x2="117.76" y2="3.74"/><path class="cls-6" d="M230.35,27.7,132.54,3.53,118.76.13c-4.69-1.16-6.69,6.07-2,7.23l97.81,24.16,13.79,3.41c4.68,1.16,6.68-6.07,2-7.23Z"/></g></g></svg>